<svg xmlns="http://www.w3.org/2000/svg" viewBox="0 0 472.01 500"><g id="レイヤー_2" data-name="レイヤー 2"><g id="アイコン"><path d="M245.83,255.58V193.44a10.3,10.3,0,1,0-20.59,0v62.14a25.75,25.75,0,1,0,20.59,0Z"/><path d="M442.41,0H29.6A29.6,29.6,0,0,0,0,29.6H0A29.61,29.61,0,0,0,29.6,59.21H203V97.27H89.25a40,40,0,0,0-39.77,35.65L18.36,417.64A40,40,0,0,0,58.13,462H82.37a38,38,0,0,0,76,0H313.62a38,38,0,0,0,76,0h24.25a40,40,0,0,0,39.76-44.35L422.53,132.92a40,40,0,0,0-39.76-35.65H269V59.21H442.41A29.61,29.61,0,0,0,472,29.6h0A29.6,29.6,0,0,0,442.41,0ZM236,415.64A136.42,136.42,0,1,1,372,279.22,136.42,136.42,0,0,1,236,415.64Z"/></g></g></svg>