<svg xmlns="http://www.w3.org/2000/svg" viewBox="0 0 62.38 62.38"><defs><style>.cls-1{fill:#fff;}.cls-2{fill:none;stroke:#000;stroke-miterlimit:10;stroke-width:0.75px;}</style></defs><g id="レイヤー_2" data-name="レイヤー 2"><g id="アイコン背景"><rect class="cls-1" width="62.38" height="62.38"/></g><g id="レイヤー_4" data-name="レイヤー 4"><g id="アイコン"><circle cx="23.17" cy="12.81" r="0.65"/><circle cx="27.26" cy="14.38" r="0.65"/><circle cx="21.32" cy="14.79" r="0.65"/><circle cx="24.9" cy="15.03" r="0.65"/><path class="cls-1" d="M24.35,50.28c-4.55,0-8.6-.08-12-.24-2.57-.12-4-.69-4.39-1.73s.52-2.17.92-2.59C8,43.2,6.5,36.66,9.4,26.12l.1-.36.35.09a70.28,70.28,0,0,0,14.48,1.6,69.82,69.82,0,0,0,14.51-1.61l.36-.09.09.36c2.9,10.55,1.43,17.09.57,19.61.4.42,1.3,1.54.91,2.59S39,49.92,36.38,50C32.94,50.2,28.89,50.28,24.35,50.28Z"/><path d="M38.93,26.21c2.83,10.3,1.51,16.83.5,19.6,0,0,3.84,3.54-3.07,3.85-5.17.24-10.59.24-12,.24s-6.85,0-12-.24c-6.9-.31-3.06-3.85-3.06-3.85-1-2.77-2.34-9.3.49-19.59a70.08,70.08,0,0,0,14.57,1.6,70.21,70.21,0,0,0,14.6-1.61m.53-.91-.72.18a69.38,69.38,0,0,1-14.41,1.59A70,70,0,0,1,10,25.49l-.72-.18L9,26C6.19,36.38,7.53,42.93,8.41,45.63a3,3,0,0,0-.84,2.81c.44,1.2,2,1.85,4.73,2,3.44.16,7.5.24,12.05.24s8.6-.08,12-.24c2.74-.12,4.29-.77,4.73-2a3,3,0,0,0-.85-2.81c.89-2.7,2.22-9.26-.63-19.62l-.19-.71Z"/><path class="cls-1" d="M39.77,19.12c1,.69,3.55,4.39,2.14,6s-11.49,2.9-17.56,2.9S8.2,26.82,6.79,25.16s1.11-5.35,2.13-6c1.17-.78,3.8-1.21,6.57-1.43,3.81-.32,7.9-.25,8.86-.25s5-.07,8.86.25C36,17.92,38.61,18.34,39.77,19.12Z"/><path class="cls-1" d="M24.35,10.08c2.54,0,7.87,3.38,8.86,7.61-3.81-.32-7.9-.25-8.86-.25s-5.05-.07-8.86.25C16.48,13.46,21.8,10.08,24.35,10.08Z"/><path class="cls-2" d="M33.21,17.69c-1-4.23-6.32-7.61-8.86-7.61s-7.87,3.38-8.86,7.61"/><path class="cls-2" d="M15.49,17.69c3.81-.32,7.9-.25,8.86-.25s5-.07,8.86.25c2.77.23,5.4.65,6.56,1.43s3.55,4.39,2.14,6-11.49,2.9-17.56,2.9S8.2,26.82,6.79,25.16s1.11-5.35,2.13-6C10.09,18.34,12.72,17.91,15.49,17.69Z"/><rect x="14.92" y="34.05" width="18.65" height="7.02" rx="2.3"/><path d="M42.33,51.85c-3.44,0-6.49-.06-9.08-.18-2.22-.1-2.65-.65-2.74-.88-.17-.47.43-1.18.66-1.39l.18-.17L31.27,49c-.62-1.68-1.8-6.41.28-14.25a54.63,54.63,0,0,0,10.76,1.14A54.05,54.05,0,0,0,53.1,34.74c2.08,7.84.9,12.57.28,14.26l-.08.23.18.17c.23.21.83.92.66,1.39-.09.23-.52.78-2.74.88C48.81,51.79,45.76,51.85,42.33,51.85Z"/><path class="cls-1" d="M52.83,35.19c1.93,7.53.79,12.05.2,13.68l-.16.47.36.34c.31.29.63.79.56,1,0,0-.22.53-2.4.63-2.59.12-5.64.18-9.06.18s-6.48-.06-9.06-.18c-2.18-.1-2.4-.62-2.4-.63-.07-.19.24-.69.55-1l.37-.34-.17-.47c-.59-1.62-1.72-6.15.2-13.67a56.46,56.46,0,0,0,10.49,1.06,55.88,55.88,0,0,0,10.52-1.07m.53-.9a52.68,52.68,0,0,1-11,1.22,53.22,53.22,0,0,1-11-1.21c-2.14,7.79-1.14,12.73-.38,14.83,0,0-2.9,2.67,2.32,2.91,3.92.18,8,.18,9.1.18s5.18,0,9.09-.18c5.22-.24,2.32-2.91,2.32-2.91.76-2.1,1.77-7-.38-14.84Z"/><path class="cls-1" d="M54,28.93c.77.52,2.69,3.32,1.61,4.57s-8.69,2.19-13.28,2.19S30.11,34.76,29,33.5s.84-4.05,1.61-4.57,2.87-.92,5-1.09c2.89-.23,6-.19,6.71-.19s3.82,0,6.71.19C51.13,28,53.12,28.34,54,28.93Z"/><path class="cls-1" d="M40.66,24.89c5.36-2.16,7.65-.13,8.38,2.95-2.89-.23-6-.19-6.71-.19s-3.82,0-6.71.19c.59-2.5,1.62-2.69,3.59-2.69A3.8,3.8,0,0,0,40.66,24.89Z"/><path class="cls-2" d="M49,27.84c-.73-3.08-3-5.11-8.38-2.95a3.8,3.8,0,0,1-1.45.26c-2,0-3,.19-3.59,2.69"/><path class="cls-2" d="M35.62,27.84c2.89-.23,6-.19,6.71-.19s3.82,0,6.71.19c2.09.18,4.08.5,5,1.09s2.69,3.32,1.61,4.57-8.69,2.19-13.28,2.19S30.11,34.76,29,33.5s.84-4.05,1.61-4.57S33.52,28,35.62,27.84Z"/><ellipse class="cls-1" cx="42.25" cy="41.54" rx="5.84" ry="3.55"/></g></g></g></svg>