<svg xmlns="http://www.w3.org/2000/svg" viewBox="0 0 460.65 497.4"><defs><style>.cls-1{fill:none;stroke:#000;stroke-miterlimit:10;stroke-width:21px;}</style></defs><g id="レイヤー_2" data-name="レイヤー 2"><g id="アイコン"><path class="cls-1" d="M128.65,99.76C152.46,49.34,201.6,10.5,232.71,10.5"/><path class="cls-1" d="M332,99.76C308.19,49.34,259.05,10.5,227.93,10.5"/><circle cx="216.77" cy="43.85" r="7.97"/><circle cx="266.81" cy="63.1" r="7.97"/><circle cx="194.15" cy="68.11" r="7.97"/><circle cx="237.9" cy="71.07" r="7.97"/><path class="cls-1" d="M230.32,100.39c20.23,0,154.7-2.07,188.58,20.63,12.57,8.43,43.38,53.59,26.12,73.88s-140.49,35.42-214.7,35.42S32.89,215.2,15.63,194.9,29.17,129.45,41.75,121C75.63,98.32,210.1,100.39,230.32,100.39Z"/><path d="M414.93,447.42c12.35-34,28.58-113.76-6.05-239.72-46.42,12-125.17,19.78-178.56,19.78-53.21,0-131.63-7.78-178.11-19.67-34.58,125.9-18.35,205.66-6,239.61,0,0-47,43.21,37.44,47.08,63.24,2.9,129.5,2.9,146.92,2.9s83.69,0,146.93-2.9C461.9,490.63,414.93,447.42,414.93,447.42ZM278.87,344.51a8.24,8.24,0,0,1,16.47,0V375a8.24,8.24,0,0,1-16.47,0ZM250.34,316a8.24,8.24,0,1,1,16.47,0V346.5a8.24,8.24,0,1,1-16.47,0Zm-28.91-28.91a8.24,8.24,0,1,1,16.47,0v30.51a8.24,8.24,0,1,1-16.47,0ZM159.76,287a8.25,8.25,0,0,1,11.65,0L193,308.53a8.24,8.24,0,0,1-11.65,11.65L159.76,298.6A8.24,8.24,0,0,1,159.76,287Zm-8.3,69.72a8.23,8.23,0,0,1,8.23-8.24h30.52a8.24,8.24,0,0,1,0,16.47H159.69A8.23,8.23,0,0,1,151.46,356.67Zm28.91,28.91a8.23,8.23,0,0,1,8.23-8.24h30.52a8.24,8.24,0,0,1,0,16.47H188.6A8.23,8.23,0,0,1,180.37,385.58Zm67.27,36.76H217.13a8.24,8.24,0,1,1,0-16.47h30.51a8.24,8.24,0,1,1,0,16.47Zm59.26,11.75a7.83,7.83,0,0,1-11.07,0l-96.2-96.2a7.82,7.82,0,0,1,11.06-11.07L306.9,423A7.84,7.84,0,0,1,306.9,434.09Z"/></g></g></svg>