<svg xmlns="http://www.w3.org/2000/svg" viewBox="0 0 62.38 62.38"><defs><style>.cls-1,.cls-3{fill:#fff;}.cls-2,.cls-4{fill:none;stroke-miterlimit:10;}.cls-2,.cls-3,.cls-4{stroke:#000;stroke-width:0.75px;}.cls-2{stroke-linecap:round;}.cls-3{stroke-linejoin:round;}</style></defs><g id="レイヤー_2" data-name="レイヤー 2"><g id="アイコン背景"><rect class="cls-1" width="62.38" height="62.38"/></g><g id="レイヤー_4" data-name="レイヤー 4"><g id="アイコン"><circle cx="37.99" cy="20.12" r="5.94"/><line class="cls-2" x1="37.99" y1="7.43" x2="37.99" y2="12.61"/><line class="cls-2" x1="29.01" y1="11.15" x2="32.67" y2="14.81"/><line class="cls-2" x1="25.3" y1="20.12" x2="30.47" y2="20.12"/><line class="cls-2" x1="29.01" y1="29.09" x2="32.67" y2="25.43"/><line class="cls-2" x1="37.99" y1="32.81" x2="37.99" y2="27.63"/><line class="cls-2" x1="46.96" y1="29.09" x2="43.3" y2="25.43"/><line class="cls-2" x1="50.67" y1="20.12" x2="45.5" y2="20.12"/><line class="cls-2" x1="46.96" y1="11.15" x2="43.3" y2="14.81"/><path class="cls-3" d="M15.29,27a3.1,3.1,0,0,1,.81.1,5.77,5.77,0,0,1,9-4.25,7,7,0,0,1,13,2.46,4.18,4.18,0,1,1,1.47,8.09H15.29a3.2,3.2,0,1,1,0-6.4Z"/><line class="cls-4" x1="16.94" y1="34.96" x2="11.63" y2="44.65"/><line class="cls-4" x1="21.74" y1="37.26" x2="12.09" y2="54.87"/><line class="cls-4" x1="24.25" y1="43.72" x2="21.12" y2="49.44"/><line class="cls-4" x1="34.98" y1="35.18" x2="25.3" y2="52.86"/><line class="cls-4" x1="39.46" y1="38.06" x2="34.15" y2="47.75"/></g></g></g></svg>