<svg xmlns="http://www.w3.org/2000/svg" viewBox="0 0 412.58 498.42"><defs><style>.cls-1,.cls-2{fill:none;stroke:#000;stroke-linecap:round;stroke-width:21px;}.cls-1{stroke-miterlimit:10;}.cls-2{stroke-linejoin:round;}</style></defs><g id="レイヤー_2" data-name="レイヤー 2"><g id="アイコン"><path class="cls-1" d="M180.13,36.88a26.38,26.38,0,1,1,26.38,26.38V85.65"/><path class="cls-2" d="M386.85,201.84c2.25-23.47-3.05-47.1-25.35-55.4L206.2,88.66h.19L51.09,146.44c-22.3,8.3-27.6,31.93-25.36,55.4"/><line class="cls-1" x1="27.95" y1="172.12" x2="384.64" y2="172.12"/><path d="M206.29,498.42H321.72a14.44,14.44,0,0,0,14.42-14.8c-5.46-215.19,68.51-192.49,69.8-195.09s9.28-70.67,5.75-114c-4.18-51.11-43.06-57-58.8-57.22a14.38,14.38,0,0,0-10.62,4.5L216.76,254.1a14.44,14.44,0,0,1-20.93,0L70.31,121.85a14.34,14.34,0,0,0-10.61-4.5C44,117.61,5.07,123.46.9,174.57c-3.54,43.29,4.41,111.31,5.74,114s75.26-20.1,69.81,195.09a14.43,14.43,0,0,0,14.42,14.8Z"/></g></g></svg>