<svg xmlns="http://www.w3.org/2000/svg" viewBox="0 0 495.53 360.63"><defs><style>.cls-1,.cls-2,.cls-4{stroke:#000;stroke-linecap:round;stroke-linejoin:round;}.cls-1{stroke-width:7px;}.cls-2,.cls-4{fill:none;}.cls-2{stroke-width:19px;}.cls-3{stroke:#231815;stroke-miterlimit:10;}.cls-4{stroke-width:20px;}</style></defs><g id="レイヤー_2" data-name="レイヤー 2"><g id="アイコン"><circle cx="418.04" cy="228.92" r="11.28"/><rect class="cls-1" x="62.28" y="135.17" width="228.85" height="126.86" rx="10.67"/><line class="cls-2" x1="94.47" y1="83.26" x2="258.94" y2="83.26"/><path class="cls-3" d="M72.66,360.13a29.85,29.85,0,0,0,29.85-29.85H42.81A29.84,29.84,0,0,0,72.66,360.13Z"/><path class="cls-3" d="M411,360.13a29.85,29.85,0,0,0,29.85-29.85h-59.7A29.84,29.84,0,0,0,411,360.13Z"/><rect class="cls-4" x="10" y="10" width="475.53" height="312.81"/><circle cx="418.04" cy="106.26" r="11.28"/><path d="M336.81,10V322.81H485.18V10ZM418,263.75a34.83,34.83,0,1,1,34.83-34.83A34.82,34.82,0,0,1,418,263.75Zm0-122.67a34.83,34.83,0,1,1,34.83-34.82A34.82,34.82,0,0,1,418,141.08Z"/></g></g></svg>