<svg xmlns="http://www.w3.org/2000/svg" viewBox="0 0 62.38 62.38"><defs><style>.cls-1{fill:#fff;}.cls-2,.cls-3{fill:#040000;}.cls-2{stroke:#040000;stroke-miterlimit:10;}</style></defs><g id="レイヤー_2" data-name="レイヤー 2"><g id="アイコン背景"><rect class="cls-1" width="62.38" height="62.38"/></g><g id="レイヤー_4" data-name="レイヤー 4"><g id="アイコン"><path class="cls-2" d="M39.82,40.47l-8.63,2.64-8.62-2.64c-3.34,3.32-6.77,9.16,1.23,9.16H38.59C46.58,49.63,43.15,43.79,39.82,40.47Z"/><path class="cls-1" d="M31.19,42.61A14.91,14.91,0,1,1,46.1,27.7,14.93,14.93,0,0,1,31.19,42.61Z"/><path class="cls-3" d="M31.19,13.29A14.41,14.41,0,1,1,16.78,27.7,14.42,14.42,0,0,1,31.19,13.29m0-1A15.41,15.41,0,1,0,46.6,27.7,15.41,15.41,0,0,0,31.19,12.29Z"/><path class="cls-3" d="M34,39.12a.89.89,0,0,1-.23-1.76,10,10,0,0,0,5.82-15,.9.9,0,1,1,1.51-1,11.79,11.79,0,0,1-6.86,17.76Z"/><circle class="cls-3" cx="37.66" cy="18.92" r="0.9"/><path class="cls-3" d="M16.89,24.54a.91.91,0,0,1-.91-.91V20.78a1.16,1.16,0,0,0-1.16-1.15H13.55a.91.91,0,0,1,0-1.82h1.27A1.16,1.16,0,0,0,16,16.65V13.81a.91.91,0,1,1,1.81,0v2.84A1.16,1.16,0,0,0,19,17.81h1.27a.91.91,0,0,1,0,1.82H19a1.16,1.16,0,0,0-1.16,1.15v2.85A.9.9,0,0,1,16.89,24.54Z"/><path class="cls-1" d="M16.89,13a.78.78,0,0,1,.78.78v2.84A1.28,1.28,0,0,0,19,17.94h1.27a.78.78,0,0,1,0,1.56H19a1.28,1.28,0,0,0-1.28,1.28v2.85a.79.79,0,0,1-1.57,0V20.78a1.28,1.28,0,0,0-1.28-1.28H13.55a.78.78,0,1,1,0-1.56h1.27a1.28,1.28,0,0,0,1.28-1.29V13.81a.78.78,0,0,1,.79-.78m0-.25a1,1,0,0,0-1,1v2.84a1,1,0,0,1-1,1H13.55a1,1,0,1,0,0,2.06h1.27a1,1,0,0,1,1,1v2.85a1,1,0,0,0,2.07,0V20.78a1,1,0,0,1,1-1h1.27a1,1,0,1,0,0-2.06H19a1,1,0,0,1-1-1V13.81a1,1,0,0,0-1-1Z"/><path class="cls-3" d="M47.51,42.84a.36.36,0,0,1-.36-.36V41.16a.61.61,0,0,0-.61-.61h-.9a.36.36,0,0,1-.36-.36.39.39,0,0,1,.36-.43h.9a.61.61,0,0,0,.61-.61V37.83a.36.36,0,0,1,.72,0v1.32a.61.61,0,0,0,.61.61h.9a.36.36,0,0,1,.36.36.38.38,0,0,1-.36.43h-.9a.61.61,0,0,0-.61.61v1.32A.36.36,0,0,1,47.51,42.84Z"/><path class="cls-1" d="M47.51,37.59a.24.24,0,0,1,.24.24v1.32a.73.73,0,0,0,.73.74h.9a.23.23,0,0,1,.23.23v.07a.23.23,0,0,1-.23.23h-.9a.73.73,0,0,0-.73.74v1.32a.24.24,0,0,1-.24.24.23.23,0,0,1-.23-.24V41.16a.74.74,0,0,0-.74-.74h-.9a.23.23,0,0,1-.23-.23v-.07a.23.23,0,0,1,.23-.23h.9a.74.74,0,0,0,.74-.74V37.83a.23.23,0,0,1,.23-.24m0-.25a.48.48,0,0,0-.48.49v1.32a.49.49,0,0,1-.49.49h-.9a.49.49,0,0,0-.48.48v.07a.48.48,0,0,0,.48.48h.9a.49.49,0,0,1,.49.49v1.32a.48.48,0,0,0,.48.49.49.49,0,0,0,.49-.49V41.16a.48.48,0,0,1,.48-.49h.9a.48.48,0,0,0,.48-.48v-.07a.49.49,0,0,0-.48-.48h-.9a.48.48,0,0,1-.48-.49V37.83a.49.49,0,0,0-.49-.49Z"/></g></g></g></svg>