<svg xmlns="http://www.w3.org/2000/svg" viewBox="0 0 74.84 47.11"><defs><style>.cls-1{fill:none;}.cls-1,.cls-2{stroke:#000;stroke-linecap:round;stroke-linejoin:round;}.cls-2{fill:#fff;}</style></defs><g id="レイヤー_2" data-name="レイヤー 2"><g id="レイヤー_1-2" data-name="レイヤー 1"><polygon class="cls-1" points="37.42 46.61 28.29 46.61 32.85 38.7 37.42 30.79 41.99 38.7 46.56 46.61 37.42 46.61"/><line class="cls-1" x1="0.5" y1="33.69" x2="74.34" y2="20.67"/><circle class="cls-2" cx="37.42" cy="27.18" r="3.61"/><polyline class="cls-1" points="11.68 11.49 9.13 15.56 6.58 19.64 4.03 15.56 1.48 11.49"/><line class="cls-1" x1="6.58" y1="19.64" x2="6.58" y2="29.66"/><line class="cls-1" x1="0.5" y1="19.64" x2="12.66" y2="19.64"/><line class="cls-1" x1="12.66" y1="24.68" x2="0.5" y2="24.68"/><polyline class="cls-1" points="73.36 0.5 70.81 4.57 68.26 8.64 65.71 4.57 63.16 0.5"/><line class="cls-1" x1="68.26" y1="8.64" x2="68.26" y2="18.67"/><line class="cls-1" x1="62.18" y1="8.64" x2="74.34" y2="8.64"/><line class="cls-1" x1="74.34" y1="13.69" x2="62.18" y2="13.69"/></g></g></svg>