<svg xmlns="http://www.w3.org/2000/svg" viewBox="0 0 98.8 81.17"><defs><style>.cls-1,.cls-2{fill:none;}.cls-1,.cls-2,.cls-3{stroke:#000;stroke-miterlimit:10;stroke-width:1.75px;}.cls-2{stroke-linecap:round;}.cls-3{fill:#fff;}</style></defs><g id="レイヤー_2" data-name="レイヤー 2"><g id="レイヤー_1-2" data-name="レイヤー 1"><circle class="cls-1" cx="71.84" cy="26.96" r="16.69"/><line class="cls-2" x1="71.84" y1="6.9" x2="71.84" y2="0.5"/><line class="cls-2" x1="71.84" y1="0.5" x2="71.84" y2="6.9"/><line class="cls-2" x1="53.14" y1="8.25" x2="57.67" y2="12.78"/><line class="cls-2" x1="45.39" y1="26.96" x2="51.79" y2="26.96"/><line class="cls-2" x1="53.14" y1="45.66" x2="57.67" y2="41.13"/><line class="cls-2" x1="71.84" y1="53.41" x2="71.84" y2="47.01"/><line class="cls-2" x1="90.55" y1="45.66" x2="86.02" y2="41.13"/><line class="cls-2" x1="98.3" y1="26.96" x2="91.9" y2="26.96"/><line class="cls-2" x1="90.55" y1="8.25" x2="86.02" y2="12.78"/><path class="cls-3" d="M68.15,42.91c-.23,0-.44,0-.66,0a25.65,25.65,0,0,0,.66-5.72,25.26,25.26,0,0,0-50.22-3.86,14.55,14.55,0,0,0-2.74-.27,14.7,14.7,0,0,0,0,29.39h53a9.79,9.79,0,0,0,0-19.58Z"/><line class="cls-1" x1="21.87" y1="67.53" x2="16.97" y2="81"/><line class="cls-1" x1="37.99" y1="67.53" x2="33.09" y2="81"/><line class="cls-1" x1="54.11" y1="67.53" x2="49.21" y2="81"/></g></g></svg>