<svg xmlns="http://www.w3.org/2000/svg" viewBox="0 0 517.07 495.22"><defs><style>.cls-1{fill:none;stroke:#000;stroke-miterlimit:10;stroke-width:19px;}</style></defs><g id="レイヤー_2" data-name="レイヤー 2"><g id="アイコン"><path class="cls-1" d="M506.73,257.7,391,142a2.87,2.87,0,0,1-.84-2V12.36a2.86,2.86,0,0,0-2.86-2.86h-44.1a2.86,2.86,0,0,0-2.87,2.86v72a2.86,2.86,0,0,1-4.89,2L260.56,11.53a2.86,2.86,0,0,0-4.05,0L10.34,257.69a2.87,2.87,0,0,0,2,4.89H68.28a2.87,2.87,0,0,1,2.87,2.87v160.3a60,60,0,0,0,56.22,59.84v.13h63.95V338.51a29.79,29.79,0,0,1,29.79-29.79h65.13A29.79,29.79,0,0,1,316,338.51V485.72h60.2a60,60,0,0,0,60-60V265.45a2.86,2.86,0,0,1,2.86-2.87H504.7A2.86,2.86,0,0,0,506.73,257.7Z"/></g></g></svg>