<svg xmlns="http://www.w3.org/2000/svg" viewBox="0 0 83.14 68.56"><defs><style>.cls-1{fill:none;}.cls-1,.cls-2{stroke:#000;stroke-linecap:round;stroke-linejoin:round;}</style></defs><g id="レイヤー_2" data-name="レイヤー 2"><g id="レイヤー_5" data-name="レイヤー 5"><path class="cls-1" d="M50.93,23.35c2.11.27,6.32,7.91,6.32,9.49"/><path class="cls-1" d="M55.42,33.43c1.68-1.34,6.63-.27,7.18,4.58.5,4.47-3.3,9.54-13.67,12.38-9.78,2.67-14.29,1.6-16.12.53"/><path class="cls-1" d="M24.1,24.72c-5.58.54-8.71,13.05-8.71,17.42,0,6.69,4.35,12.6,11,12.6s8.86-8.33,8.86-12.26a15,15,0,0,0-2.14-8.13"/><path class="cls-1" d="M28.5,26.93c3.46,1.23,10.88,1.24,19.59-3.58"/><path class="cls-1" d="M24.94,22.81C28.45,12.27,32,1,34.11.5,35.37.22,46,13.11,48.77,20.67"/><path class="cls-1" d="M41.41,54.74c1.8,2.88,3.34,10-2.75,12.76C33.73,69.73,28,63.33,27.05,62.43"/><path class="cls-1" d="M59.75,44.91c11,8.75,9.54,17.05,5.3,19.41-3.35,1.86-8.6-3.52-9.2-4.64"/><path class="cls-2" d="M51.28,35.74c-1.22.34-3.37,1.73-2.51,2.76.52.63,3.1,0,3.42-.14s1.9-1.28,1.36-2.52C53.19,35,52.2,35.47,51.28,35.74Z"/><path class="cls-2" d="M42.54,34.65c-.75,0-1.42-1.67-.39-2S43.68,34.65,42.54,34.65Z"/><path class="cls-2" d="M52.77,32.63c-1,0-1.1-2,0-2S53.73,32.63,52.77,32.63Z"/><path class="cls-1" d="M52,20.87c8-1.72,14.45,6.3,9.94,14.9"/><path class="cls-1" d="M26.23,18.92C10.29,18.65,0,21.85.52,32.63S.82,59.54,6.67,61.4c5.47,1.74,8.21,1.25,8.21,1.25"/><path class="cls-1" d="M48.09,18.91c14.55-1.4,31.7.1,33.47,13.72.34,2.62,4.28,29.52-6.21,28.24"/><path class="cls-1" d="M43.13,59.14c5.16-1.84,10.23-2.93,11.57-1.2"/><path class="cls-1" d="M.5,68.06c1.07-1,15.58-6.7,21.1-6.51"/><path class="cls-1" d="M68.07,59.87c3.56-.22,6.57.83,8.88,1.43,2.79.74,5.41,4.23,5.69,6.28"/></g></g></svg>