<svg xmlns="http://www.w3.org/2000/svg" viewBox="0 0 51.86 66.92"><defs><style>.cls-1{fill:none;stroke:#000;stroke-linecap:round;stroke-linejoin:round;}</style></defs><g id="レイヤー_2" data-name="レイヤー 2"><g id="レイヤー_5" data-name="レイヤー 5"><path class="cls-1" d="M8.57,8.32C4.06,12,.75,16.93.75,22.54c0,8.57,15.51,26.05,25.18,26.05"/><path class="cls-1" d="M25.93,1.38A21.65,21.65,0,0,0,20,2.31"/><path class="cls-1" d="M12.06,1.38C7,4.19,8.57,10.2,9.65,12.16c.65,1.17,3.58,1.5,7.88-.87h0c4.3-2.37,5.58-5,4.94-6.2-1.09-2-5.31-6.52-10.41-3.71Z"/><path class="cls-1" d="M12,8.87a6.38,6.38,0,0,1,2.11-3.71,6.47,6.47,0,0,1,4.3.17"/><path d="M5.67,19.57A5.33,5.33,0,0,0,3.9,22a5.61,5.61,0,0,0,.43,3,.13.13,0,0,1-.21.13A3.16,3.16,0,0,1,4,20.14c.17-.22,1.95-1.2,1.69-.57Z"/><path class="cls-1" d="M43.3,8.32c4.5,3.69,7.82,8.61,7.82,14.22,0,8.57-15.52,26.05-25.19,26.05"/><path class="cls-1" d="M25.93,1.38a21.36,21.36,0,0,1,5.85.91"/><path class="cls-1" d="M39.8,1.38c5.1,2.81,3.49,8.82,2.41,10.78-.65,1.17-3.58,1.5-7.88-.87h0c-4.3-2.37-5.58-5-4.93-6.2,1.08-2,5.3-6.52,10.4-3.71Z"/><path class="cls-1" d="M39.88,8.87c0-1.1-.69-3.34-1.36-3.71s-4.14-.45-5,.17"/><path class="cls-1" d="M48.46,21.89c-4.13,4.34-16.35,18.37-22.53,18.37s-18.4-14-22.52-18.37"/><path d="M46.31,19.35a3.2,3.2,0,0,1,1.43,5.7.13.13,0,0,1-.21-.13A5.61,5.61,0,0,0,48,22a5.33,5.33,0,0,0-1.77-2.4.13.13,0,0,1,.12-.22Z"/><path class="cls-1" d="M41.89,39.05a35.12,35.12,0,0,0,7.73,5.09,3.22,3.22,0,0,1-1.84,6.06l-.61-.07a3.23,3.23,0,0,0-3.35,4.67c.26.49.52,1,.78,1.51a3.22,3.22,0,0,1-4.82,4c-1.4-1-2.81-2.19-4.09-3.36a3.22,3.22,0,0,0-5.31,1.73c-.38,1.79-.85,3.66-1.36,5.4a3.22,3.22,0,0,1-6.18,0c-.51-1.74-1-3.61-1.36-5.4A3.22,3.22,0,0,0,16.17,57c-1.27,1.17-2.69,2.31-4.09,3.36a3.22,3.22,0,0,1-4.82-4c.26-.51.52-1,.78-1.51a3.23,3.23,0,0,0-3.35-4.67l-.61.07a3.22,3.22,0,0,1-1.83-6.06A35.28,35.28,0,0,0,10,39.05"/></g></g></svg>