<svg xmlns="http://www.w3.org/2000/svg" viewBox="0 0 101.16 49.06"><defs><style>.cls-1{fill:none;}.cls-1,.cls-2{stroke:#000;stroke-linecap:round;stroke-linejoin:round;}.cls-3{font-size:5.33px;font-family:ToppanBunkyuMidashiGothicStdN-ExtraBold-83pv-RKSJ-H, Toppan Bunkyu Midashi Gothic;}</style></defs><g id="レイヤー_2" data-name="レイヤー 2"><g id="レイヤー_5" data-name="レイヤー 5"><path class="cls-1" d="M12.59,12.48c2-3.19,25.56-8.53,33.47-2.6"/><path class="cls-1" d="M7.82,17.57c-7.93,7-9.7,27.44,9.6,29.63"/><path class="cls-1" d="M21.8,46.68A48,48,0,0,0,47.71,43.5"/><path class="cls-1" d="M4.72,3.39c2.37-.1,11,3.13,12.3,5.44"/><path class="cls-1" d="M6.28,18.07C3.15,12.79,4.12,5.51,4.56,3.66s7.13,6.69,7.68,8.39"/><path class="cls-1" d="M40.35,7.64c1.79-5.13,8-7.13,8-7.13"/><path class="cls-1" d="M50.62,12.89c.79-9.56-1.34-12-2.31-12.38-.5-.22-2.25,5.73-2.25,8.12"/><path class="cls-1" d="M49.47,12.89C54.68,15,66.41,34.63,51.26,42.2"/><path class="cls-1" d="M20.36,28c-3.5-.12-6.17.1-6.25-2.61S18.24,23,20,23.08s5.38.11,5.34,2.14S23.9,28.16,20.36,28Z"/><path class="cls-1" d="M39,28.05c-4.62,0-5.53-1.27-5.53-2.51S35.66,23,39,23s5.45,1,5.45,2.51S43.91,28.05,39,28.05Z"/><circle class="cls-2" cx="20.07" cy="25.54" r="1.02"/><circle class="cls-2" cx="39.34" cy="25.54" r="1.28"/><path class="cls-1" d="M14.11,20.13c2.26-1.68,7.69-1.74,10.48,0"/><path class="cls-1" d="M33.51,20.13c2-1.68,9.08-1.87,10.58,0"/><path class="cls-1" d="M12.42,33.2A60,60,0,0,0,.5,34.27"/><path class="cls-1" d="M12.42,36.21c-5.53,3.52-9,5.67-9.41,6"/><path class="cls-1" d="M15.33,39.58c-2.77,3.31-8.44,7.47-8.87,9"/><path class="cls-1" d="M47,29.48C49.46,29.1,61.81,28.1,63,29"/><path class="cls-1" d="M47.71,32.12C53.27,35,58.87,35,62.38,35"/><path class="cls-1" d="M47.71,35.49c1.39,1.37,12,5.32,13.67,4.81"/><path class="cls-1" d="M27.8,29.69c-.05,1,1.43,2.17,2.32,2.17s2.51-1.33,2.51-2.17"/><path class="cls-1" d="M30.86,37c-.2-.84-.45-2.74-.64-4.6"/><path class="cls-1" d="M28.64,40.83c0-1,1.87-3.2,2.22-3.2a10.65,10.65,0,0,1,3.9,2.12"/><text class="cls-3" transform="translate(64.05 9.91)">ボスを倒そう</text><polygon class="cls-1" points="100.66 2.11 58.73 2.11 58.73 12.89 63.88 12.89 63.76 13.87 62.96 20.09 67.94 16.27 72.35 12.89 100.66 12.89 100.66 2.11"/></g></g></svg>