<svg xmlns="http://www.w3.org/2000/svg" viewBox="0 0 58.76 69.52"><defs><style>.cls-1{fill:none;}.cls-1,.cls-2,.cls-3{stroke:#000;stroke-linecap:round;stroke-linejoin:round;}.cls-3{fill:#fff;}</style></defs><g id="レイヤー_2" data-name="レイヤー 2"><g id="レイヤー_5" data-name="レイヤー 5"><path class="cls-1" d="M16.73,27.25a13.85,13.85,0,0,1,8.11-.6"/><path class="cls-1" d="M34.67,26.28c3.34-.6,7.21-.45,9.43,1"/><path class="cls-2" d="M22.13,35.57c-1.79,0-3.18-3.17-.27-3.44S24.24,35.57,22.13,35.57Z"/><path class="cls-2" d="M38.07,35.57c-2,0-1.79-3.45,0-3.45S40.78,35.57,38.07,35.57Z"/><path class="cls-1" d="M29.45,41.13c-1.26,0-3.44-1.33-3.44-2.52s1.65-2.51,3.11-2.51,3.64,1.06,3.64,2.51S31.73,41.13,29.45,41.13Z"/><path class="cls-1" d="M24.13,45.16c.18,2.44,4.55,4.19,5.41.54,0,0,2.48,4.69,5.09-.22"/><path class="cls-1" d="M22.25,42.41c-3.07,1.06-3,5.74-3,5.74"/><path class="cls-1" d="M36,42.21c2.88.09,3.56,3.41,3.61,5.36"/><path class="cls-1" d="M29.46,17.08c-12.92,0-22.17,7.75-22.17,19.54s8.72,19,22.17,19,22-7.86,22-19.26S42.61,17.08,29.46,17.08Z"/><path class="cls-1" d="M34.35,62.75c9.33-1.19,23.91-7.49,23.91-26.42C58.26,14.84,44.88.61,43.66.5S38.9,7.58,38.94,8.62c0,0-4.8-.43-9.29-.37-3.09.05-10.85.67-11.06.67S16.86.5,15.06.5.5,16.6.5,38.61c0,17.57,13.94,22.61,24,23.93"/><path class="cls-1" d="M35.49,64.71c10.24-1.31,15.36-5.92,17.15-10.82"/><path class="cls-1" d="M6.32,54.53c1.23,5,9.72,8.33,16.63,9.76"/><path class="cls-1" d="M34.91,62.94h-.52c0-.11,0-.22-.08-.33a5.1,5.1,0,0,0-9.94.33h-.52a1,1,0,1,0,0,2h.52a5.11,5.11,0,0,0,10,0h.52a1,1,0,0,0,0-2Z"/><circle class="cls-3" cx="29.38" cy="66.28" r="0.96"/><line class="cls-3" x1="29.38" y1="69.02" x2="29.38" y2="67.24"/></g></g></svg>